<?xml version="1.0" encoding="UTF-8" standalone="no"?>
<!DOCTYPE svg PUBLIC "-//W3C//DTD SVG 1.1//EN"
 "http://www.w3.org/Graphics/SVG/1.1/DTD/svg11.dtd">
<!-- Generated by graphviz version 2.50.0 (20211204.2007)
 -->
<!-- Title: packages Pages: 1 -->
<svg width="552pt" height="188pt"
 viewBox="0.00 0.00 552.00 188.00" xmlns="http://www.w3.org/2000/svg" xmlns:xlink="http://www.w3.org/1999/xlink">
<g id="graph0" class="graph" transform="scale(1 1) rotate(0) translate(4 184)">
<title>packages</title>
<polygon fill="white" stroke="transparent" points="-4,4 -4,-184 548,-184 548,4 -4,4"/>
<!-- complex_watcher -->
<g id="node1" class="node">
<title>complex_watcher</title>
<polygon fill="none" stroke="black" points="179,-36 39,-36 39,0 179,0 179,-36"/>
<text text-anchor="middle" x="109" y="-14.3" font-family="Times,serif" font-size="14.00">complex_watcher</text>
</g>
<!-- complex_watcher.cp_id_to_cp_name -->
<g id="node2" class="node">
<title>complex_watcher.cp_id_to_cp_name</title>
<polygon fill="none" stroke="black" points="270,-108 0,-108 0,-72 270,-72 270,-108"/>
<text text-anchor="middle" x="135" y="-86.3" font-family="Times,serif" font-size="14.00">complex_watcher.cp_id_to_cp_name</text>
</g>
<!-- complex_watcher.publisher -->
<g id="node3" class="node">
<title>complex_watcher.publisher</title>
<polygon fill="none" stroke="black" points="471.5,-180 260.5,-180 260.5,-144 471.5,-144 471.5,-180"/>
<text text-anchor="middle" x="366" y="-158.3" font-family="Times,serif" font-size="14.00">complex_watcher.publisher</text>
</g>
<!-- complex_watcher.read_mets -->
<g id="node4" class="node">
<title>complex_watcher.read_mets</title>
<polygon fill="none" stroke="black" points="544,-108 326,-108 326,-72 544,-72 544,-108"/>
<text text-anchor="middle" x="435" y="-86.3" font-family="Times,serif" font-size="14.00">complex_watcher.read_mets</text>
</g>
<!-- complex_watcher.read_mets&#45;&gt;complex_watcher.publisher -->
<g id="edge1" class="edge">
<title>complex_watcher.read_mets&#45;&gt;complex_watcher.publisher</title>
<path fill="none" stroke="black" d="M417.94,-108.3C409.5,-116.86 399.18,-127.34 389.96,-136.7"/>
<polygon fill="black" stroke="black" points="382.86,-143.9 386.68,-133.61 386.37,-140.33 389.88,-136.77 389.88,-136.77 389.88,-136.77 386.37,-140.33 393.08,-139.93 382.86,-143.9 382.86,-143.9"/>
</g>
<!-- complex_watcher.watcher -->
<g id="node5" class="node">
<title>complex_watcher.watcher</title>
<polygon fill="none" stroke="black" points="398.5,-36 197.5,-36 197.5,0 398.5,0 398.5,-36"/>
<text text-anchor="middle" x="298" y="-14.3" font-family="Times,serif" font-size="14.00">complex_watcher.watcher</text>
</g>
<!-- complex_watcher.watcher&#45;&gt;complex_watcher.cp_id_to_cp_name -->
<g id="edge2" class="edge">
<title>complex_watcher.watcher&#45;&gt;complex_watcher.cp_id_to_cp_name</title>
<path fill="none" stroke="black" d="M258.13,-36.12C235.84,-45.69 207.88,-57.7 184.24,-67.85"/>
<polygon fill="black" stroke="black" points="174.74,-71.93 182.16,-63.85 179.34,-69.96 183.93,-67.99 183.93,-67.99 183.93,-67.99 179.34,-69.96 185.71,-72.12 174.74,-71.93 174.74,-71.93"/>
</g>
<!-- complex_watcher.watcher&#45;&gt;complex_watcher.publisher -->
<g id="edge3" class="edge">
<title>complex_watcher.watcher&#45;&gt;complex_watcher.publisher</title>
<path fill="none" stroke="black" d="M298.98,-36.31C300.63,-54.94 305.07,-85 317,-108 322.39,-118.39 330.37,-128.26 338.33,-136.59"/>
<polygon fill="black" stroke="black" points="345.56,-143.79 335.3,-139.93 342.02,-140.27 338.47,-136.74 338.47,-136.74 338.47,-136.74 342.02,-140.27 341.65,-133.55 345.56,-143.79 345.56,-143.79"/>
</g>
<!-- complex_watcher.watcher&#45;&gt;complex_watcher.read_mets -->
<g id="edge4" class="edge">
<title>complex_watcher.watcher&#45;&gt;complex_watcher.read_mets</title>
<path fill="none" stroke="black" d="M331.51,-36.12C349.84,-45.49 372.74,-57.19 392.33,-67.2"/>
<polygon fill="black" stroke="black" points="401.36,-71.81 390.4,-71.27 396.9,-69.54 392.45,-67.26 392.45,-67.26 392.45,-67.26 396.9,-69.54 394.5,-63.25 401.36,-71.81 401.36,-71.81"/>
</g>
</g>
</svg>
